<svg aria-hidden="true" style="position: absolute; width: 0; height: 0; overflow: hidden;" version="1.1" xmlns="http://www.w3.org/2000/svg" xmlns:xlink="http://www.w3.org/1999/xlink">
<defs>
<symbol id="icon-wind" viewBox="0 0 32 32">
<path d="M25 4c-2.761 0-5 2.239-5 5v0c0 0.552-0.448 1-1 1s-1-0.448-1-1v0c0-3.866 3.134-7 7-7s7 3.134 7 7c0 3.866-3.134 7-7 7v0h-24c-0.552 0-1-0.448-1-1s0.448-1 1-1v0h24c2.761 0 5-2.239 5-5s-2.239-5-5-5v0zM11 6c-1.105 0-2 0.895-2 2v0c0 0.552-0.448 1-1 1s-1-0.448-1-1v0c0-2.209 1.791-4 4-4s4 1.791 4 4c0 2.209-1.791 4-4 4v0h-10c-0.552 0-1-0.448-1-1s0.448-1 1-1v0h10c1.105 0 2-0.895 2-2s-0.895-2-2-2v0zM0 19c0-0.552 0.448-1 1-1v0h20.085c3.314 0 6 2.686 6 6s-2.686 6-6 6c-3.314 0-6-2.686-6-6v0c0-0.552 0.448-1 1-1s1 0.448 1 1v0c0 2.209 1.791 4 4 4s4-1.791 4-4c0-2.209-1.791-4-4-4v0h-20.086c-0.552-0.001-0.998-0.448-0.998-1 0 0 0 0 0 0v0z"></path>
</symbol>
<symbol id="icon-diagram" viewBox="0 0 32 32">
<path d="M12 7c0-1.657 1.343-3 3-3v0h2c1.657 0 3 1.343 3 3v0 2c0 1.657-1.343 3-3 3v0 2h11c0.552 0 1 0.448 1 1v0 2c0 0.552-0.448 1-1 1s-1-0.448-1-1v0-1h-10v1c0 0.552-0.448 1-1 1s-1-0.448-1-1v0-1h-10v1c0 0.552-0.448 1-1 1s-1-0.448-1-1v0-2c0-0.552 0.448-1 1-1v0h11v-2c-1.657 0-3-1.343-3-3v0-2zM17 10c0.552 0 1-0.448 1-1v0-2c0-0.552-0.448-1-1-1v0h-2c-0.552 0-1 0.448-1 1v0 2c0 0.552 0.448 1 1 1v0h2zM0 23c0-1.657 1.343-3 3-3v0h2c1.657 0 3 1.343 3 3v0 2c0 1.657-1.343 3-3 3v0h-2c-1.657 0-3-1.343-3-3v0-2zM3 22c-0.552 0-1 0.448-1 1v0 2c0 0.552 0.448 1 1 1v0h2c0.552 0 1-0.448 1-1v0-2c0-0.552-0.448-1-1-1v0h-2zM12 23c0-1.657 1.343-3 3-3v0h2c1.657 0 3 1.343 3 3v0 2c0 1.657-1.343 3-3 3v0h-2c-1.657 0-3-1.343-3-3v0-2zM15 22c-0.552 0-1 0.448-1 1v0 2c0 0.552 0.448 1 1 1v0h2c0.552 0 1-0.448 1-1v0-2c0-0.552-0.448-1-1-1v0h-2zM24 23c0-1.657 1.343-3 3-3v0h2c1.657 0 3 1.343 3 3v0 2c0 1.657-1.343 3-3 3v0h-2c-1.657 0-3-1.343-3-3v0-2zM27 22c-0.552 0-1 0.448-1 1v0 2c0 0.552 0.448 1 1 1v0h2c0.552 0 1-0.448 1-1v0-2c0-0.552-0.448-1-1-1v0h-2z"></path>
</symbol>
<symbol id="icon-cup-hot" viewBox="0 0 32 32">
<path d="M1 12c-0.552 0.001-0.999 0.449-0.999 1.001 0 0.076 0.009 0.15 0.025 0.222l-0.001-0.007 3.304 14.868c0.514 2.257 2.503 3.915 4.88 3.916h11.584c2.377-0.001 4.366-1.659 4.874-3.882l0.006-0.034 0.262-1.18c0.332 0.065 0.713 0.102 1.103 0.102 3.314 0 6-2.686 6-6 0-2.782-1.893-5.121-4.461-5.801l-0.042-0.009 0.442-1.98c0.015-0.065 0.024-0.139 0.024-0.216 0-0.552-0.448-1-1-1h-26zM26 25c-0.212 0-0.423-0.017-0.632-0.050l1.734-7.796c1.682 0.499 2.889 2.030 2.889 3.844 0 2.206-1.785 3.996-3.99 4.002h-0.001zM5.28 27.65l-3.034-13.65h23.508l-3.034 13.65c-0.308 1.354-1.502 2.35-2.928 2.35h-11.584c-1.426-0-2.62-0.996-2.924-2.33l-0.004-0.020z"></path>
<path d="M8.8 1.6l-0.006 0.008-0.028 0.038c-0.146 0.2-0.282 0.407-0.408 0.62-0.097 0.151-0.191 0.326-0.272 0.508l-0.010 0.026c-0.052 0.12-0.068 0.184-0.074 0.206v0.008c0.025 0.187 0.089 0.355 0.185 0.501l-0.003-0.005c0.15 0.266 0.356 0.544 0.616 0.89l0.020 0.024c0.236 0.316 0.52 0.694 0.74 1.086 0.224 0.4 0.44 0.91 0.44 1.49 0 0.376-0.13 0.736-0.238 0.988-0.132 0.303-0.267 0.558-0.419 0.801l0.015-0.025c-0.181 0.301-0.348 0.551-0.525 0.792l0.019-0.028-0.036 0.050-0.010 0.016-0.004 0.004c-0.184 0.245-0.474 0.401-0.801 0.401-0.552 0-1-0.448-1-1 0-0.226 0.075-0.434 0.201-0.602l-0.002 0.003 0.006-0.008 0.028-0.038c0.146-0.2 0.282-0.407 0.408-0.62 0.097-0.151 0.191-0.326 0.272-0.508l0.010-0.026c0.052-0.12 0.068-0.184 0.074-0.206-0.023-0.189-0.087-0.36-0.183-0.509l0.003 0.005c-0.204-0.339-0.408-0.63-0.63-0.905l0.012 0.015-0.020-0.024c-0.249-0.316-0.494-0.67-0.715-1.040l-0.025-0.046c-0.261-0.425-0.423-0.937-0.44-1.485l-0-0.005c0-0.376 0.13-0.736 0.238-0.988 0.118-0.276 0.268-0.548 0.404-0.776 0.159-0.261 0.328-0.516 0.506-0.764l0.050-0.070c0.184-0.245 0.474-0.401 0.801-0.401 0.552 0 1 0.448 1 1 0 0.226-0.075 0.434-0.201 0.602l0.002-0.003zM14.8 1.6l-0.006 0.008-0.028 0.038c-0.146 0.2-0.282 0.407-0.408 0.62-0.107 0.17-0.202 0.35-0.282 0.534-0.052 0.12-0.068 0.184-0.074 0.206v0.008c0.025 0.187 0.089 0.355 0.185 0.501l-0.003-0.005c0.15 0.266 0.356 0.544 0.616 0.89l0.020 0.024c0.236 0.316 0.52 0.694 0.74 1.086 0.224 0.4 0.44 0.91 0.44 1.49 0 0.376-0.13 0.736-0.238 0.988-0.116 0.268-0.25 0.528-0.404 0.776-0.181 0.301-0.348 0.55-0.525 0.791l0.019-0.027-0.036 0.050-0.010 0.016-0.004 0.004c-0.184 0.245-0.474 0.401-0.801 0.401-0.552 0-1-0.448-1-1 0-0.226 0.075-0.434 0.201-0.602l-0.002 0.003 0.006-0.008 0.028-0.038c0.146-0.2 0.282-0.407 0.408-0.62 0.107-0.17 0.202-0.35 0.282-0.534 0.052-0.12 0.068-0.184 0.074-0.206-0.023-0.189-0.087-0.36-0.183-0.509l0.003 0.005c-0.204-0.339-0.408-0.63-0.63-0.905l0.012 0.015-0.020-0.024c-0.27-0.345-0.517-0.708-0.74-1.086-0.261-0.425-0.423-0.937-0.44-1.485l-0-0.005c0-0.376 0.13-0.736 0.238-0.988 0.118-0.276 0.268-0.548 0.404-0.776 0.159-0.261 0.328-0.516 0.506-0.764l0.050-0.070c0.184-0.245 0.474-0.401 0.801-0.401 0.552 0 1 0.448 1 1 0 0.226-0.075 0.434-0.201 0.602l0.002-0.003zM20.8 1.6l-0.006 0.008-0.028 0.038c-0.145 0.2-0.282 0.407-0.408 0.62-0.107 0.17-0.202 0.35-0.282 0.534-0.052 0.12-0.068 0.184-0.074 0.206v0.008c0.025 0.187 0.089 0.355 0.185 0.501l-0.003-0.005c0.15 0.266 0.356 0.544 0.616 0.89l0.020 0.024c0.236 0.316 0.52 0.694 0.74 1.086 0.224 0.4 0.44 0.91 0.44 1.49 0 0.376-0.13 0.736-0.238 0.988-0.116 0.268-0.25 0.528-0.404 0.776-0.156 0.262-0.324 0.517-0.504 0.764l-0.038 0.050-0.010 0.016-0.004 0.004c-0.184 0.245-0.474 0.401-0.801 0.401-0.552 0-1-0.448-1-1 0-0.226 0.075-0.434 0.201-0.602l-0.002 0.003 0.006-0.008 0.028-0.038c0.145-0.2 0.282-0.407 0.408-0.62 0.107-0.17 0.202-0.35 0.282-0.534 0.052-0.12 0.068-0.184 0.074-0.206-0.023-0.189-0.087-0.36-0.183-0.509l0.003 0.005c-0.204-0.339-0.408-0.63-0.63-0.905l0.012 0.015-0.020-0.024c-0.27-0.345-0.517-0.708-0.74-1.086-0.261-0.425-0.423-0.937-0.44-1.485l-0-0.005c0-0.376 0.13-0.736 0.238-0.988 0.118-0.276 0.268-0.548 0.404-0.776 0.159-0.261 0.328-0.516 0.506-0.764l0.050-0.070c0.184-0.245 0.474-0.401 0.801-0.401 0.552 0 1 0.448 1 1 0 0.226-0.075 0.434-0.201 0.602l0.002-0.003z"></path>
</symbol>
<symbol id="icon-ph_shower" viewBox="0 0 32 32">
<path d="M8 29.5c0 0.828-0.672 1.5-1.5 1.5s-1.5-0.672-1.5-1.5v0c0-0.828 0.672-1.5 1.5-1.5s1.5 0.672 1.5 1.5v0zM10.5 24c-0.828 0-1.5 0.672-1.5 1.5s0.672 1.5 1.5 1.5v0c0.828 0 1.5-0.672 1.5-1.5s-0.672-1.5-1.5-1.5v0zM2.5 24c-0.828 0-1.5 0.672-1.5 1.5s0.672 1.5 1.5 1.5v0c0.828 0 1.5-0.672 1.5-1.5s-0.672-1.5-1.5-1.5v0zM6.5 20c-0.828 0-1.5 0.672-1.5 1.5s0.672 1.5 1.5 1.5v0c0.828 0 1.5-0.672 1.5-1.5s-0.672-1.5-1.5-1.5v0zM32 5c0 0.552-0.448 1-1 1v0h-3.586l-3.482 3.482-2.707 15.85c-0.165 0.952-0.985 1.667-1.972 1.667-0.552 0-1.052-0.224-1.414-0.585l-12.25-12.25c-0.362-0.362-0.587-0.862-0.587-1.415 0-0.989 0.718-1.81 1.661-1.971l0.012-0.002 15.842-2.708 3.776-3.775c0.181-0.181 0.431-0.293 0.707-0.293h4c0.552 0 1 0.448 1 1v0zM21.776 10.224l-14.776 2.526 12.25 12.25 2.526-14.776z"></path>
</symbol>
<symbol id="icon-bi_grid-1x2" viewBox="0 0 32 32">
<path d="M12 2h-10v28h10v-28zM30 2h-10v10h10v-10zM30 20v10h-10v-10h10zM0 2c0-1.105 0.895-2 2-2v0h10c1.105 0 2 0.895 2 2v0 28c0 1.105-0.895 2-2 2v0h-10c-1.105 0-2-0.895-2-2v0-28zM18 2c0-1.105 0.895-2 2-2v0h10c1.105 0 2 0.895 2 2v0 10c0 1.105-0.895 2-2 2v0h-10c-1.105 0-2-0.895-2-2v0-10zM20 18c-1.105 0-2 0.895-2 2v0 10c0 1.105 0.895 2 2 2v0h10c1.105 0 2-0.895 2-2v0-10c0-1.105-0.895-2-2-2v0h-10z"></path>
</symbol>
<symbol id="icon-bi_grid" viewBox="0 0 32 32">
<path d="M2 5c0-1.657 1.343-3 3-3v0h6c1.657 0 3 1.343 3 3v0 6c0 1.657-1.343 3-3 3v0h-6c-1.657 0-3-1.343-3-3v0-6zM5 4c-0.552 0-1 0.448-1 1v0 6c0 0.552 0.448 1 1 1v0h6c0.552 0 1-0.448 1-1v0-6c0-0.552-0.448-1-1-1v0h-6zM18 5c0-1.657 1.343-3 3-3v0h6c1.657 0 3 1.343 3 3v0 6c0 1.657-1.343 3-3 3v0h-6c-1.657 0-3-1.343-3-3v0-6zM21 4c-0.552 0-1 0.448-1 1v0 6c0 0.552 0.448 1 1 1v0h6c0.552 0 1-0.448 1-1v0-6c0-0.552-0.448-1-1-1v0h-6zM2 21c0-1.657 1.343-3 3-3v0h6c1.657 0 3 1.343 3 3v0 6c0 1.657-1.343 3-3 3v0h-6c-1.657 0-3-1.343-3-3v0-6zM5 20c-0.552 0-1 0.448-1 1v0 6c0 0.552 0.448 1 1 1v0h6c0.552 0 1-0.448 1-1v0-6c0-0.552-0.448-1-1-1v0h-6zM18 21c0-1.657 1.343-3 3-3v0h6c1.657 0 3 1.343 3 3v0 6c0 1.657-1.343 3-3 3v0h-6c-1.657 0-3-1.343-3-3v0-6zM21 20c-0.552 0-1 0.448-1 1v0 6c0 0.552 0.448 1 1 1v0h6c0.552 0 1-0.448 1-1v0-6c0-0.552-0.448-1-1-1v0h-6z"></path>
</symbol>
<symbol id="icon-bi_grid-3x3-gap" viewBox="0 0 32 32">
<path d="M8 4v4h-4v-4h4zM10 28v-4c0-1.105-0.895-2-2-2v0h-4c-1.105 0-2 0.895-2 2v0 4c0 1.105 0.895 2 2 2v0h4c1.105 0 2-0.895 2-2v0zM10 18v-4c0-1.105-0.895-2-2-2v0h-4c-1.105 0-2 0.895-2 2v0 4c0 1.105 0.895 2 2 2v0h4c1.105 0 2-0.895 2-2v0zM10 8v-4c0-1.105-0.895-2-2-2v0h-4c-1.105 0-2 0.895-2 2v0 4c0 1.105 0.895 2 2 2v0h4c1.105 0 2-0.895 2-2v0zM20 28v-4c0-1.105-0.895-2-2-2v0h-4c-1.105 0-2 0.895-2 2v0 4c0 1.105 0.895 2 2 2v0h4c1.105 0 2-0.895 2-2v0zM20 18v-4c0-1.105-0.895-2-2-2v0h-4c-1.105 0-2 0.895-2 2v0 4c0 1.105 0.895 2 2 2v0h4c1.105 0 2-0.895 2-2v0zM20 8v-4c0-1.105-0.895-2-2-2v0h-4c-1.105 0-2 0.895-2 2v0 4c0 1.105 0.895 2 2 2v0h4c1.105 0 2-0.895 2-2v0zM18 4v4h-4v-4h4zM28 4v4h-4v-4h4zM8 14v4h-4v-4h4zM18 14v4h-4v-4h4zM28 14h-4v4h4v-4zM8 24v4h-4v-4h4zM18 24v4h-4v-4h4zM28 24v4h-4v-4h4zM24 2c-1.105 0-2 0.895-2 2v0 4c0 1.105 0.895 2 2 2v0h4c1.105 0 2-0.895 2-2v0-4c0-1.105-0.895-2-2-2v0h-4zM22 14c0-1.105 0.895-2 2-2v0h4c1.105 0 2 0.895 2 2v0 4c0 1.105-0.895 2-2 2v0h-4c-1.105 0-2-0.895-2-2v0-4zM24 22c-1.105 0-2 0.895-2 2v0 4c0 1.105 0.895 2 2 2v0h4c1.105 0 2-0.895 2-2v0-4c0-1.105-0.895-2-2-2v0h-4z"></path>
</symbol>
<symbol id="icon-solar_fridge-outline" viewBox="0 0 32 32">
<path d="M23.667 9.333c0-0.552-0.448-1-1-1s-1 0.448-1 1v0 2.667c0 0.552 0.448 1 1 1s1-0.448 1-1v0-2.667zM23.667 18.667c0-0.552-0.448-1-1-1s-1 0.448-1 1v0 2.666c0 0.552 0.448 1 1 1s1-0.448 1-1v0-2.666z"></path>
<path d="M16.075 1.667h-0.15c-2.45 0-4.392 0-5.91 0.204-1.563 0.21-2.828 0.653-3.827 1.65-0.997 0.999-1.44 2.264-1.65 3.827-0.205 1.52-0.205 3.46-0.205 5.91v4.15c0 2.45 0 4.392 0.204 5.91 0.211 1.563 0.654 2.829 1.651 3.827 0.613 0.612 1.325 1.015 2.145 1.284v0.904c0 0.552 0.448 1 1 1v0h1.334c0.552 0 1-0.448 1-1v0-0.394c1.209 0.061 2.62 0.061 4.258 0.061h0.15c1.64 0 3.049 0 4.258-0.061v0.394c0 0.552 0.448 1 1 1v0h1.334c0.552 0 1-0.448 1-1v0-0.904c0.82-0.269 1.533-0.672 2.145-1.284 0.997-0.998 1.44-2.264 1.65-3.826 0.205-1.52 0.205-3.46 0.205-5.911v-4.148c0-2.45 0-4.392-0.204-5.91-0.211-1.563-0.654-2.829-1.651-3.827-0.999-0.998-2.264-1.44-3.827-1.651-1.52-0.204-3.46-0.204-5.91-0.204zM7.603 4.936c0.564-0.564 1.337-0.903 2.678-1.083 1.371-0.184 3.176-0.186 5.719-0.186s4.35 0.002 5.72 0.186c1.34 0.18 2.113 0.519 2.677 1.083s0.903 1.337 1.083 2.679c0.184 1.37 0.187 3.176 0.187 5.718v1h-19.334v-1c0-2.542 0.003-4.348 0.187-5.72 0.18-1.34 0.519-2.113 1.083-2.677zM6.333 16.333h19.334v1c0 2.543-0.003 4.35-0.187 5.72-0.18 1.34-0.519 2.114-1.083 2.678s-1.337 0.902-2.678 1.082c-1.371 0.184-3.176 0.187-5.719 0.187s-4.348-0.003-5.72-0.187c-1.34-0.18-2.113-0.518-2.677-1.082s-0.903-1.338-1.083-2.679c-0.184-1.37-0.187-3.176-0.187-5.719v-1z"></path>
</symbol>
<symbol id="icon-lucide_microwave" viewBox="0 0 32 32">
<path stroke-linejoin="round" fill="none" stroke="currentColor" stroke-linecap="round" stroke-miterlimit="4" stroke-width="2" d="M26.667 5.333h-21.334c-1.473 0.001-2.666 1.194-2.666 2.667v0 14.667c0.001 1.472 1.194 2.665 2.666 2.666h21.334c1.472-0.001 2.665-1.194 2.666-2.666v-14.667c0-1.473-1.194-2.666-2.666-2.667h-0z"></path>
<path stroke-linejoin="round" stroke-linecap="round" stroke-miterlimit="4" stroke-width="2" d="M17.333 10.667h-8c-0.736 0-1.333 0.597-1.333 1.333v6.667c0 0.736 0.597 1.333 1.333 1.333h8c0.737 0 1.334-0.597 1.334-1.333v-6.667c0-0.736-0.597-1.333-1.334-1.333zM24 10.667v9.333M8 25.333v2.667M24 25.333v2.667"></path>
</symbol>
<symbol id="icon-hugeicons_gas-stove" viewBox="0 0 32 32">
<path stroke-linejoin="round" fill="none" stroke="currentColor" stroke-linecap="round" stroke-miterlimit="4" stroke-width="2.4" d="M8 25.333h5.333M24 25.345v-0.012M2.667 8c0-4.413 0.92-5.333 5.333-5.333h16c4.413 0 5.333 0.92 5.333 5.333v16c0 4.413-0.92 5.333-5.333 5.333h-16c-4.413 0-5.333-0.92-5.333-5.333v-16z"></path>
<path stroke-linejoin="round" stroke-linecap="round" stroke-miterlimit="4" stroke-width="2.4" d="M16 18.667c2.946 0 5.334-2.388 5.334-5.334s-2.388-5.334-5.334-5.334v0c-2.946 0-5.334 2.388-5.334 5.334s2.388 5.334 5.334 5.334v0zM20.667 13.333h2M16 18v2M11.333 13.333h-2M16 8.667v-2"></path>
</symbol>
<symbol id="icon-ion_water-outline" viewBox="0 0 32 32">
<path stroke-linejoin="miter" fill="none" stroke="currentColor" stroke-linecap="butt" stroke-miterlimit="10" stroke-width="2" d="M25 20c0 5.523-3.477 9-9 9s-9-3.477-9-9c0-5.927 6.452-13.928 8.43-16.243 0.138-0.161 0.342-0.263 0.57-0.263s0.432 0.101 0.569 0.262l0.001 0.001c1.978 2.315 8.43 10.316 8.43 16.243z"></path>
<path stroke-linejoin="round" stroke-linecap="round" stroke-miterlimit="4" stroke-width="2" d="M21.5 20.5c0 2.485-2.015 4.5-4.5 4.5v0"></path>
</symbol>
<symbol id="icon-Property-1Default-2" viewBox="0 0 32 32">
<path d="M16 13.139l-1.788-3.577c-0.444-0.887-1.213-2.16-2.304-3.191-1.072-1.013-2.356-1.704-3.908-1.704-3.352 0-6 2.652-6 5.84 0 2.423 1.108 4.132 3.736 6.74 0.719 0.705 1.465 1.418 2.221 2.122l0.071 0.065c2.216 2.080 4.972 4.667 7.972 8.128 3-3.46 5.756-6.049 7.972-8.128 0.827-0.768 1.573-1.482 2.31-2.204l-0.018 0.018c2.628-2.608 3.736-4.319 3.736-6.74 0-3.188-2.648-5.84-6-5.84-1.555 0-2.836 0.691-3.908 1.704-1.091 1.031-1.86 2.304-2.304 3.191l-1.788 3.577zM16.784 29.723c-0.19 0.223-0.47 0.364-0.784 0.364s-0.594-0.141-0.783-0.362l-0.001-0.001c-3.203-3.804-6.1-6.524-8.487-8.763-4.129-3.876-6.729-6.316-6.729-10.453 0-4.329 3.58-7.84 8-7.84 3.2 0 5.439 2.1 6.808 4.016 0.52 0.731 0.916 1.432 1.192 1.984 0.347-0.691 0.745-1.353 1.192-1.984 1.369-1.917 3.608-4.016 6.808-4.016 4.42 0 8 3.511 8 7.84 0 4.137-2.6 6.576-6.729 10.453-2.387 2.24-5.284 4.963-8.487 8.763z"></path>
</symbol>
<symbol id="icon-Property-1Default-1-1" viewBox="0 0 32 32">
<path d="M15.116 1.676c0.171-0.319 0.503-0.532 0.884-0.532s0.713 0.213 0.881 0.527l0.003 0.005 3.778 7.158c0.144 0.27 0.401 0.464 0.706 0.519l0.006 0.001 7.976 1.38c0.473 0.085 0.827 0.494 0.827 0.985 0 0.27-0.107 0.515-0.281 0.695l0-0-5.64 5.804c-0.176 0.18-0.284 0.426-0.284 0.698 0 0.050 0.004 0.099 0.011 0.147l-0.001-0.005 1.152 8.010c0.006 0.043 0.010 0.092 0.010 0.142 0 0.552-0.448 1-1 1-0.16 0-0.312-0.038-0.446-0.105l0.006 0.003-7.264-3.572c-0.129-0.065-0.281-0.103-0.442-0.103s-0.313 0.038-0.448 0.106l0.006-0.003-7.26 3.572c-0.129 0.065-0.281 0.103-0.442 0.103-0.552 0-1-0.448-1-1 0-0.050 0.004-0.1 0.011-0.149l-0.001 0.005 1.152-8.010c0.006-0.043 0.010-0.092 0.010-0.142 0-0.272-0.108-0.518-0.284-0.698l-5.64-5.804c-0.174-0.18-0.281-0.425-0.281-0.695 0-0.491 0.354-0.9 0.821-0.984l0.006-0.001 7.976-1.38c0.312-0.056 0.57-0.249 0.711-0.515l0.003-0.005 3.778-7.158z"></path>
</symbol>
<symbol id="icon-map-1" viewBox="0 0 32 32">
<path d="M31.634 0.226c0.224 0.184 0.366 0.462 0.366 0.772 0 0.001 0 0.001 0 0.002v-0 28c-0 0.483-0.343 0.885-0.798 0.979l-0.006 0.001-10 2c-0.059 0.012-0.127 0.020-0.196 0.020s-0.137-0.007-0.202-0.021l0.006 0.001-9.804-1.96-9.804 1.96c-0.059 0.012-0.127 0.019-0.196 0.019-0.552 0-1-0.447-1-0.999v-28c0-0.483 0.343-0.885 0.798-0.979l0.006-0.001 10-2c0.059-0.012 0.127-0.019 0.196-0.019s0.137 0.007 0.202 0.021l-0.006-0.001 9.804 1.96 9.804-1.96c0.059-0.013 0.127-0.020 0.197-0.020 0.241 0 0.462 0.085 0.634 0.227l-0.002-0.001zM20 3.82l-8-1.6v25.96l8 1.6v-25.96zM22 29.78l8-1.6v-25.96l-8 1.6v25.96zM10 28.18v-25.96l-8 1.6v25.96l8-1.6z"></path>
</symbol>
<symbol id="icon-tv" viewBox="0 0 32 32">
<path d="M0 8s0-4 4-4h24s4 0 4 4v12s0 4-4 4h-8c0 1.333 0.167 2.333 0.5 3h1.5c0.552 0 1 0.448 1 1s-0.448 1-1 1v0h-12c-0.552 0-1-0.448-1-1s0.448-1 1-1v0h1.5c0.333-0.667 0.5-1.667 0.5-3h-8s-4 0-4-4v-12zM2.796 6.29c-0.218 0.153-0.391 0.357-0.504 0.595l-0.004 0.009c-0.161 0.329-0.264 0.713-0.288 1.118l-0 0.008v11.98c0 0.65 0.156 1.004 0.29 1.204 0.14 0.208 0.341 0.377 0.604 0.508 0.338 0.162 0.703 0.259 1.076 0.286l0.050 0.002h23.98c0.65 0 1.004-0.156 1.204-0.29 0.218-0.153 0.391-0.357 0.504-0.595l0.004-0.009c0.162-0.338 0.259-0.703 0.286-1.076l0.002-0.050v-11.98c0-0.65-0.156-1.004-0.29-1.204-0.153-0.218-0.357-0.391-0.595-0.504l-0.009-0.004c-0.329-0.161-0.713-0.264-1.118-0.288l-0.008-0h-23.98c-0.65 0-1.004 0.156-1.204 0.29z"></path>
</symbol>
<symbol id="icon-ui-radios" viewBox="0 0 32 32">
<path d="M14 5c0-0.265 0.105-0.52 0.293-0.707s0.442-0.293 0.707-0.293h14c0.265 0 0.52 0.105 0.707 0.293s0.293 0.442 0.293 0.707v2c0 0.265-0.105 0.52-0.293 0.707s-0.442 0.293-0.707 0.293h-14c-0.265 0-0.52-0.105-0.707-0.293s-0.293-0.442-0.293-0.707v-2zM0 24c0-1.591 0.632-3.117 1.757-4.243s2.651-1.757 4.243-1.757 3.117 0.632 4.243 1.757c1.125 1.125 1.757 2.651 1.757 4.243s-0.632 3.117-1.757 4.243c-1.125 1.125-2.651 1.757-4.243 1.757s-3.117-0.632-4.243-1.757c-1.125-1.125-1.757-2.651-1.757-4.243zM14 21c0-0.265 0.105-0.52 0.293-0.707s0.442-0.293 0.707-0.293h14c0.265 0 0.52 0.105 0.707 0.293s0.293 0.442 0.293 0.707v2c0 0.265-0.105 0.52-0.293 0.707s-0.442 0.293-0.707 0.293h-14c-0.265 0-0.52-0.105-0.707-0.293s-0.293-0.442-0.293-0.707v-2zM14 11c0-0.265 0.105-0.52 0.293-0.707s0.442-0.293 0.707-0.293h10c0.265 0 0.52 0.105 0.707 0.293s0.293 0.442 0.293 0.707-0.105 0.52-0.293 0.707c-0.188 0.188-0.442 0.293-0.707 0.293h-10c-0.265 0-0.52-0.105-0.707-0.293s-0.293-0.442-0.293-0.707zM14 27c0-0.265 0.105-0.52 0.293-0.707s0.442-0.293 0.707-0.293h10c0.265 0 0.52 0.105 0.707 0.293s0.293 0.442 0.293 0.707-0.105 0.52-0.293 0.707c-0.188 0.188-0.442 0.293-0.707 0.293h-10c-0.265 0-0.52-0.105-0.707-0.293s-0.293-0.442-0.293-0.707zM6 2c-0.788 0-1.568 0.155-2.296 0.457s-1.389 0.744-1.947 1.301c-0.557 0.557-0.999 1.219-1.301 1.947s-0.457 1.508-0.457 2.296c0 0.788 0.155 1.568 0.457 2.296s0.744 1.389 1.301 1.947c0.557 0.557 1.219 0.999 1.947 1.301s1.508 0.457 2.296 0.457c1.591 0 3.117-0.632 4.243-1.757s1.757-2.651 1.757-4.243c0-1.591-0.632-3.117-1.757-4.243s-2.651-1.757-4.243-1.757zM6 11c-0.796 0-1.559-0.316-2.121-0.879s-0.879-1.326-0.879-2.121c0-0.796 0.316-1.559 0.879-2.121s1.326-0.879 2.121-0.879c0.796 0 1.559 0.316 2.121 0.879s0.879 1.326 0.879 2.121c0 0.796-0.316 1.559-0.879 2.121s-1.326 0.879-2.121 0.879z"></path>
</symbol>
</defs>
</svg>
